<?xml version="1.0" standalone="no"?><svg xmlns="http://www.w3.org/2000/svg" viewBox="0 0 1440 320"><path fill="#000b76" fill-opacity="1" d="M0,128L6.3,122.7C12.6,117,25,107,38,96C50.5,85,63,75,76,69.3C88.4,64,101,64,114,53.3C126.3,43,139,21,152,16C164.2,11,177,21,189,42.7C202.1,64,215,96,227,106.7C240,117,253,107,265,128C277.9,149,291,203,303,229.3C315.8,256,328,256,341,250.7C353.7,245,366,235,379,197.3C391.6,160,404,96,417,74.7C429.5,53,442,75,455,90.7C467.4,107,480,117,493,122.7C505.3,128,518,128,531,138.7C543.2,149,556,171,568,176C581.1,181,594,171,606,176C618.9,181,632,203,644,192C656.8,181,669,139,682,149.3C694.7,160,707,224,720,208C732.6,192,745,96,758,69.3C770.5,43,783,85,796,117.3C808.4,149,821,171,834,154.7C846.3,139,859,85,872,80C884.2,75,897,117,909,165.3C922.1,213,935,267,947,277.3C960,288,973,256,985,224C997.9,192,1011,160,1023,160C1035.8,160,1048,192,1061,192C1073.7,192,1086,160,1099,165.3C1111.6,171,1124,213,1137,202.7C1149.5,192,1162,128,1175,133.3C1187.4,139,1200,213,1213,202.7C1225.3,192,1238,96,1251,69.3C1263.2,43,1276,85,1288,112C1301.1,139,1314,149,1326,133.3C1338.9,117,1352,75,1364,74.7C1376.8,75,1389,117,1402,149.3C1414.7,181,1427,203,1434,213.3L1440,224L1440,320L1433.7,320C1427.4,320,1415,320,1402,320C1389.5,320,1377,320,1364,320C1351.6,320,1339,320,1326,320C1313.7,320,1301,320,1288,320C1275.8,320,1263,320,1251,320C1237.9,320,1225,320,1213,320C1200,320,1187,320,1175,320C1162.1,320,1149,320,1137,320C1124.2,320,1112,320,1099,320C1086.3,320,1074,320,1061,320C1048.4,320,1036,320,1023,320C1010.5,320,998,320,985,320C972.6,320,960,320,947,320C934.7,320,922,320,909,320C896.8,320,884,320,872,320C858.9,320,846,320,834,320C821.1,320,808,320,796,320C783.2,320,771,320,758,320C745.3,320,733,320,720,320C707.4,320,695,320,682,320C669.5,320,657,320,644,320C631.6,320,619,320,606,320C593.7,320,581,320,568,320C555.8,320,543,320,531,320C517.9,320,505,320,493,320C480,320,467,320,455,320C442.1,320,429,320,417,320C404.2,320,392,320,379,320C366.3,320,354,320,341,320C328.4,320,316,320,303,320C290.5,320,278,320,265,320C252.6,320,240,320,227,320C214.7,320,202,320,189,320C176.8,320,164,320,152,320C138.9,320,126,320,114,320C101.1,320,88,320,76,320C63.2,320,51,320,38,320C25.3,320,13,320,6,320L0,320Z"></path></svg>